. 
 
http://www.torrenting.com          :     Once & For all ;)


               www . Torrenting . Com 

(((((((((((((= Enjoy No RAR releases =))))))))))))))))))))


...................................NFO:....................................

.UUUUUUUU     UUUUUUUU           SSSSSSSSSSSSSSS         MMMMMMMM               MMMMMMMM     
U::::::U     U::::::U         SS:::::::::::::::S        M:::::::M             M:::::::M     
U::::::U     U::::::U        S:::::SSSSSS::::::S        M::::::::M           M::::::::M     
UU:::::U     U:::::UU        S:::::S     SSSSSSS        M:::::::::M         M:::::::::M     
 U:::::U     U:::::U         S:::::S                    M::::::::::M       M::::::::::M     
 U:::::D     D:::::U         S:::::S                    M:::::::::::M     M:::::::::::M     
 U:::::D     D:::::U          S::::SSSS                 M:::::::M::::M   M::::M:::::::M     
 U:::::D     D:::::U           SS::::::SSSSS            M::::::M M::::M M::::M M::::::M     
 U:::::D     D:::::U             SSS::::::::SS          M::::::M  M::::M::::M  M::::::M     
 U:::::D     D:::::U                SSSSSS::::S         M::::::M   M:::::::M   M::::::M     
 U:::::D     D:::::U                     S:::::S        M::::::M    M:::::M    M::::::M     
 U::::::U   U::::::U                     S:::::S        M::::::M     MMMMM     M::::::M     
 U:::::::UUU:::::::U         SSSSSSS     S:::::S        M::::::M               M::::::M     
  UU:::::::::::::UU   ...... S::::::SSSSSS:::::S ...... M::::::M               M::::::M     
    UU:::::::::UU     .::::. S:::::::::::::::SS  .::::. M::::::M               M::::::M     
      UUUUUUUUU       ......  SSSSSSSSSSSSSSS    ...... MMMMMMMM               MMMMMMMM   



             The Twilight Saga Breaking Dawn Part 1 2011 TS READNFO XviD - U.S.M

SOURCES:

video: The Twilight Saga Breaking Dawn Part 1 2011 TS READNFO XviD - MiSTERE
Audio: DIDYOUR

IMDB:

www.imdb.com/title/tt1324999/

Video
ID                               : 0
Format                           : MPEG-4 Visual
Format profile                   : Advanced Simple@L5
Format settings, BVOP            : 2
Format settings, QPel            : No
Format settings, GMC             : No warppoints
Format settings, Matrix          : Default (MPEG)
Muxing mode                      : Packed bitstream
Codec ID                         : XVID
Codec ID/Hint                    : XviD
Duration                         : 1h 46mn
Bit rate                         : 1 675 Kbps
Width                            : 720 pixels
Height                           : 304 pixels
Display aspect ratio             : 2.35:1
Frame rate                       : 24.000 fps
Color space                      : YUV
Chroma subsampling               : 4:2:0
Bit depth                        : 8 bits
Scan type                        : Progressive
Compression mode                 : Lossy
Bits/(Pixel*Frame)               : 0.319
Stream size                      : 1.25 GiB (92%)
Writing library                  : XviD 64

Audio
ID                               : 1
Format                           : MPEG Audio
Format version                   : Version 1
Format profile                   : Layer 3
Mode                             : Joint stereo
Mode extension                   : MS Stereo
Codec ID                         : 55
Codec ID/Hint                    : MP3
Duration                         : 1h 46mn
Bit rate mode                    : Constant
Bit rate                         : 128 Kbps
Channel(s)                       : 2 channels
Sampling rate                    : 44.1 KHz
Compression mode                 : Lossy
Stream size                      : 97.9 MiB (7%)
Alignment                        : Split accross interleaves
Interleave, duration             : 42 ms (1.00 video frame)
Interleave, preload duration     : 500 ms
Writing library                  : LAME3.98r
Encoding settings                : -m j -V 4 -q 2 -lowpass 17 -b 128


WORKDONE:

Ok heres our take on this shit saga ....first we've had to become a re-encode grp as we weren't blessed with
having the source files,but hey ho.
The video was ok,not great ( been better cams in the past ) The main fault was the noise,very grainy,dark in places and
there was a 2.min 14secs oos part around 1hr 15mins into the film.
What we opted too do was run a very HQ video denoiser and by doing so we lost some of the sharpness,but got rid of alot of that
noise.We also slightly tweaked the brightness and contrast levels and actually lowered the chroma aswell.
The audio ....thanks to mistere for most of the sync work,well 99% of it.
The audio we had to cut the oos part and then dropped it into goldwave....thats when we seen the issue,there was 2mins 14secs of
audio in a 2mins 12secs of video.....so used time warp and shrinked the audio,more or less then remuxed straight over,but did have to
fine tune in one part so there might be a slight overlap.
Also the audio had some hiss to it so we cleaned that all up and slightly changed the EQ.

This was already in action before we were told there was a cam by TNZ ,so if we get the files and there alot better,we'll do a v2....
if not this is until the r5 lol. 
Check sample for Q.

SCREENIES:

[IMG]http://i.imgur.com/KAUs3.png[/IMG]
[IMG]http://i.imgur.com/bDiDg.png[/IMG]
[IMG]http://i.imgur.com/VWSWH.png[/IMG]
[IMG]http://i.imgur.com/DuApl.png[/IMG]